<svg width="20" height="20" viewBox="0 0 20 20" fill="none" xmlns="http://www.w3.org/2000/svg">
<path fill-rule="evenodd" clip-rule="evenodd" d="M6.41 0H13.59C15.8187 0 16.6275 0.2325 17.4425 0.6675C18.2575 1.10375 18.8962 1.7425 19.3325 2.5575C19.7675 3.3725 20 4.18125 20 6.41V13.59C20 15.8187 19.7675 16.6275 19.3325 17.4425C18.9062 18.2477 18.2477 18.9062 17.4425 19.3325C16.6275 19.7675 15.8187 20 13.59 20H6.41C4.18125 20 3.3725 19.7675 2.5575 19.3325C1.75226 18.9062 1.09376 18.2477 0.6675 17.4425C0.2325 16.6275 0 15.8187 0 13.59V6.41C0 4.18125 0.2325 3.3725 0.6675 2.5575C1.09376 1.75226 1.75226 1.09376 2.5575 0.6675C3.3725 0.2325 4.18125 0 6.41 0ZM16.25 5C16.5815 5 16.8995 4.8683 17.1339 4.63388C17.3683 4.39946 17.5 4.08152 17.5 3.75C17.5 3.41848 17.3683 3.10054 17.1339 2.86612C16.8995 2.6317 16.5815 2.5 16.25 2.5C15.9185 2.5 15.6005 2.6317 15.3661 2.86612C15.1317 3.10054 15 3.41848 15 3.75C15 4.08152 15.1317 4.39946 15.3661 4.63388C15.6005 4.8683 15.9185 5 16.25 5ZM10 15.625C11.4918 15.625 12.9226 15.0324 13.9775 13.9775C15.0324 12.9226 15.625 11.4918 15.625 10C15.625 8.50816 15.0324 7.07742 13.9775 6.02252C12.9226 4.96763 11.4918 4.375 10 4.375C8.50816 4.375 7.07742 4.96763 6.02252 6.02252C4.96763 7.07742 4.375 8.50816 4.375 10C4.375 11.4918 4.96763 12.9226 6.02252 13.9775C7.07742 15.0324 8.50816 15.625 10 15.625ZM10 13.75C9.00544 13.75 8.05161 13.3549 7.34835 12.6517C6.64509 11.9484 6.25 10.9946 6.25 10C6.25 9.00544 6.64509 8.05161 7.34835 7.34835C8.05161 6.64509 9.00544 6.25 10 6.25C10.9946 6.25 11.9484 6.64509 12.6517 7.34835C13.3549 8.05161 13.75 9.00544 13.75 10C13.75 10.9946 13.3549 11.9484 12.6517 12.6517C11.9484 13.3549 10.9946 13.75 10 13.75Z" fill="black"/>
</svg>
